:SAMPLES-PER-SECOND 30
:FULLY-SPECIFIED
:DEGREES
31
root  76.0224 39.2055 25.7718 -75.3442 -84.9642 77.7413
RightUpLeg  6.56178 -10.8078 -8.67648
RightLeg  10.9606 -2.42938 2.71023
RightFoot  -19.3241 -0.0220826 1.56105
RightToes  1.74622e-010 0 -3.6325e-017
Spine  1.69939 3.34762 11.033
Spine1  12.1159 7.2235 -12.5699
HEad  -36.9947 32.2433 4.44895
LeftShoulder1  17.6174 -13.2603 -83.6782
LeftArm  152.029 -6.53189 22.1494
LeftForeArm  -178.058 -49.0897 -11.8902
LeftHand  -0.244104 0.0205437 5.32207
RightShoulder  6.08537 9.57213 40.3797
RightArm  -10.2611 -6.66266 33.1245
RightForeArm  -6.16923 19.5628 5.35798
RightHand  -0.424392 -1.69359 -13.2102
LeftUpLeg  -27.526 11.349 -7.8378
LeftLeg  20.1613 3.33408 1.71076
LeftFoot  -6.18977 0.303162 -5.91398
LeftToes  -3.34697e-010 -1.70107e-010 -9.05613e-011
32
root  75.1805 39.0915 25.7366 -77.9113 -84.9666 80.637
RightUpLeg  8.03422 -10.6806 -8.97686
RightLeg  10.0425 -2.08527 2.88576
RightFoot  -19.5527 0.00932032 1.97572
RightToes  1.74622e-010 0 -3.6325e-017
Spine  2.39836 3.59811 10.8076
Spine1  11.7561 7.63199 -13.1262
HEad  -54.7548 -3.55756 -13.5728
LeftShoulder1  18.1033 -16.1886 -75.8585
LeftArm  60.0365 -7.88649 1.95061
LeftForeArm  -45.6611 -12.4173 -14.3335
LeftHand  -0.244104 0.0205437 5.32207
RightShoulder  6.12148 9.63224 40.4378
RightArm  -9.61666 -4.02889 32.8885
RightForeArm  -7.12684 23.605 5.3955
RightHand  -0.437793 -1.82511 -14.1069
LeftUpLeg  -27.747 10.82 -7.52995
LeftLeg  13.5105 3.56196 -0.0399186
LeftFoot  -4.34461 0.380115 -5.79402
LeftToes  -3.34697e-010 -1.70107e-010 -9.05613e-011
33
root  74.2416 38.9101 25.7243 -77.5814 -85.0937 80.493
RightUpLeg  9.68884 -10.6821 -9.19941
RightLeg  9.57686 -1.83175 3.07136
RightFoot  -20.047 0.0308772 2.1862
RightToes  1.74622e-010 0 -3.6325e-017
Spine  3.10862 3.77015 10.5247
Spine1  11.3497 7.8848 -13.3496
HEad  -2.12598 -4.56583 -3.05261
LeftShoulder1  13.0561 -15.3948 -59.0187
LeftArm  -8.41944 -2.85833 -14.3457
LeftForeArm  -1.03287 7.52644 -12.4789
LeftHand  -0.244104 0.0205437 5.32207
RightShoulder  6.22701 9.78267 40.6888
RightArm  -10.5547 -1.65845 32.5279
RightForeArm  -8.3559 27.3145 6.31078
RightHand  -0.420102 -2.14191 -14.8
LeftUpLeg  -27.2328 4.91472 -3.82045
LeftLeg  7.78433 10.7884 -2.74036
LeftFoot  -2.61175 0.451416 -5.69982
LeftToes  -3.34697e-010 -1.70107e-010 -9.05613e-011
34
root  73.1674 38.6661 25.7772 -76.3593 -85.3981 79.3556
RightUpLeg  11.4969 -10.8906 -9.51641
RightLeg  9.58268 -1.13948 3.35203
RightFoot  -20.7278 0.0855018 2.74893
RightToes  1.74622e-010 0 -3.6325e-017
Spine  3.81913 3.82683 10.5903
Spine1  10.5667 8.02009 -13.7749
HEad  -7.8353 -3.74103 -4.84727
LeftShoulder1  7.1518 -10.5663 -44.8926
LeftArm  -38.3068 0.385335 -29.489
LeftForeArm  15.3723 3.7739 13.0446
LeftHand  -0.244104 0.0205437 5.32207
RightShoulder  6.42322 10.0896 41.0514
RightArm  -10.6557 0.131367 32.1365
RightForeArm  -8.90985 30.4878 7.13193
RightHand  -0.429488 -2.06665 -14.8193
LeftUpLeg  -27.2171 2.63066 -2.11517
LeftLeg  4.66929 14.999 -4.42912
LeftFoot  -1.80757 0.483074 -5.64993
LeftToes  -3.34697e-010 -1.70107e-010 -9.05613e-011
35
root  71.9445 38.4173 25.9129 -79.8973 -85.7738 82.893
RightUpLeg  13.3074 -11.3714 -10.2077
RightLeg  10.1206 0.489014 3.51116
RightFoot  -20.8306 0.166674 3.70941
RightToes  1.74622e-010 0 -3.6325e-017
Spine  4.089 3.9543 10.8699
Spine1  10.1395 8.32022 -14.3984
HEad  -7.78127 -4.1033 -5.12695
LeftShoulder1  6.97313 -10.2081 -44.2739
LeftArm  -29.7837 5.86686 -29.9126
LeftForeArm  10.189 4.768 6.29065
LeftHand  -0.244104 0.0205437 5.32207
RightShoulder  6.6298 10.5117 41.101
RightArm  -9.5128 1.58043 32.116
RightForeArm  -7.4195 32.4272 7.56508
RightHand  -0.552872 -1.05507 -14.7337
LeftUpLeg  -27.4797 3.77505 -2.57012
LeftLeg  5.27473 16.0309 -4.39186
LeftFoot  -0.868488 0.399113 -4.33093
LeftToes  -3.34697e-010 -1.70107e-010 -9.05613e-011
36
root  70.6214 38.2007 26.1105 -90.5233 -86.0116 93.093
RightUpLeg  15.3011 -12.1029 -11.4017
RightLeg  11.3209 3.06069 3.25679
RightFoot  -20.146 0.260768 5.16218
RightToes  1.74622e-010 0 -3.6325e-017
Spine  4.46153 4.13398 10.8826
Spine1  10.2512 8.73867 -14.8502
HEad  -7.99611 -3.9649 -4.73394
LeftShoulder1  7.47919 -10.8473 -45.421
LeftArm  -21.7985 11.6716 -27.3253
LeftForeArm  6.53139 5.75934 0.572582
LeftHand  -0.244104 0.0205437 5.32207
RightShoulder  6.67742 10.7557 40.6508
RightArm  -7.11866 3.10382 32.702
RightForeArm  -5.54083 32.5869 7.51031
RightHand  -0.834679 0.871089 -15.5205
LeftUpLeg  -27.8275 7.52239 -4.85134
LeftLeg  8.95064 13.7209 -2.49693
LeftFoot  1.38344 0.12277 -1.22584
LeftToes  -3.34697e-010 -1.70107e-010 -9.05613e-011
37
root  69.2864 38.0146 26.3424 -99.2342 -86.1589 100.374
RightUpLeg  17.95 -12.4976 -12.6899
RightLeg  13.2152 5.65871 2.67604
RightFoot  -19.0485 0.417981 8.08001
RightToes  1.74622e-010 0 -3.6325e-017
Spine  6.57517 3.96744 10.5473
Spine1  9.63835 8.73142 -15.0316
HEad  -8.77928 -3.2177 -4.11755
LeftShoulder1  7.63432 -10.9816 -45.9516
LeftArm  -17.1943 17.2177 -25.8611
LeftForeArm  6.13608 6.35667 -1.58879
LeftHand  -0.244104 0.0205437 5.32207
RightShoulder  6.55607 10.6451 40.1878
RightArm  -3.83081 4.38879 33.5201
RightForeArm  -4.28621 31.0101 7.02864
RightHand  -1.10686 2.46031 -16.501
LeftUpLeg  -27.9871 13.3374 -8.36678
LeftLeg  14.327 7.50672 0.423987
LeftFoot  3.60378 -0.295703 2.11619
LeftToes  -3.34697e-010 -1.70107e-010 -9.05613e-011
38
root  67.7983 37.9049 26.5794 -99.0325 -85.3172 99.8397
RightUpLeg  18.222 -11.6985 -14.2413
RightLeg  17.2667 6.73924 2.24241
RightFoot  -16.9985 0.498385 12.6595
RightToes  1.74622e-010 0 -3.6325e-017
Spine  6.91786 4.07162 8.47008
Spine1  9.29701 8.50278 -14.3865
HEad  -8.91906 -2.36178 -3.05272
LeftShoulder1  7.66068 -10.9486 -46.2196
LeftArm  -13.318 22.2585 -24.6538
LeftForeArm  7.64205 4.51652 -2.92421
LeftHand  -0.244104 0.0205437 5.32207
RightShoulder  6.50241 10.4512 40.4331
RightArm  -0.189708 4.55934 33.9496
RightForeArm  -3.89073 28.1856 6.29116
RightHand  -1.16313 2.79266 -16.6287
LeftUpLeg  -28.3255 15.1328 -10.8643
LeftLeg  18.9418 4.68996 2.2918
LeftFoot  3.50834 -0.530563 3.92148
LeftToes  -3.34697e-010 -1.70107e-010 -9.05613e-011
39
root  66.2764 37.9495 26.832 -95.2594 -84.6946 95.6835
RightUpLeg  16.2012 -8.06153 -14.2488
RightLeg  24.4078 4.05124 1.71927
RightFoot  -10.9404 -0.138154 16.3685
RightToes  1.74622e-010 0 -3.6325e-017
Spine  6.96516 4.08027 6.40503
Spine1  9.07367 8.07902 -13.36
HEad  -8.33105 -1.78183 -2.22744
LeftShoulder1  8.00114 -11.3278 -47.0634
LeftArm  -11.3825 25.4598 -23.0406
LeftForeArm  10.0464 -4.89869 -4.35709
LeftHand  -0.244104 0.0205437 5.32207
RightShoulder  6.68632 10.5714 41.2858
RightArm  3.59668 3.25634 33.9874
RightForeArm  -5.14715 24.6211 5.56574
RightHand  -1.0868 2.46316 -16.1901
LeftUpLeg  -26.9399 13.3642 -10.8489
LeftLeg  22.3587 5.96045 3.02345
LeftFoot  0.625722 -0.443661 4.18252
LeftToes  -3.34697e-010 -1.70107e-010 -9.05613e-011
40
root  64.8357 38.1261 27.0804 -96.9375 -84.2997 97.0319
RightUpLeg  11.1229 -3.76484 -13.4204
RightLeg  34.9393 1.0498 0.545019
RightFoot  -0.278855 -1.49542 15.7986
RightToes  1.74622e-010 0 -3.6325e-017
Spine  7.20543 4.06038 4.43728
Spine1  8.6248 7.5279 -11.9033
HEad  -8.00617 -1.06413 -2.38675
LeftShoulder1  8.26861 -11.6501 -47.6177
LeftArm  -10.6266 24.914 -22.8449
LeftForeArm  13.6808 -8.39247 -4.96536
LeftHand  -0.244104 0.0205437 5.32207
RightShoulder  6.98177 10.9374 42.0757
RightArm  6.50503 1.18197 34.1167
RightForeArm  -6.56065 20.6482 5.56804
RightHand  -1.00963 2.09108 -15.7847
LeftUpLeg  -24.6103 13.0206 -10.9379
LeftLeg  23.7385 6.50951 3.46072
LeftFoot  -2.65861 -0.296187 4.11693
LeftToes  -3.34697e-010 -1.70107e-010 -9.05613e-011
41
root  63.5226 38.2988 27.2903 -99.785 -83.7469 99.6346
RightUpLeg  4.3192 -0.240761 -12.8403
RightLeg  46.178 0.0444308 -0.223531
RightFoot  9.6995 -1.9454 10.8202
RightToes  1.74622e-010 0 -3.6325e-017
Spine  7.56363 3.86441 1.824
Spine1  8.33594 6.58366 -10.0107
HEad  -8.45017 -0.0245102 -3.40381
LeftShoulder1  8.17226 -11.5585 -47.342
LeftArm  -11.3354 21.3107 -24.6894
LeftForeArm  21.7243 -6.57637 -4.49871
LeftHand  -0.244104 0.0205437 5.32207
RightShoulder  7.16379 11.1492 42.5811
RightArm  6.30002 -0.840866 34.4062
RightForeArm  -3.95178 16.687 6.89583
RightHand  -0.926791 1.57438 -15.5543
LeftUpLeg  -22.1213 13.1322 -11.2658
LeftLeg  24.0872 6.84624 3.67657
LeftFoot  -4.91388 -0.203264 4.14321
LeftToes  -3.34697e-010 -1.70107e-010 -9.05613e-011
42
root  62.2314 38.5491 27.4911 -98.0257 -83.5253 97.5314
RightUpLeg  -2.11376 1.41056 -12.3451
RightLeg  54.9807 0.00787519 -0.40911
RightFoot  13.5283 -1.08339 5.22034
RightToes  1.74622e-010 0 -3.6325e-017
Spine  7.86948 3.20893 -0.374216
Spine1  8.28134 5.20012 -8.02888
HEad  -9.24308 0.941235 -4.47532
LeftShoulder1  8.10602 -11.4885 -47.174
LeftArm  -11.9185 17.6256 -26.1056
LeftForeArm  23.0181 -6.51306 -4.49002
LeftHand  -0.244104 0.0205437 5.32207
RightShoulder  7.19407 11.0422 43.1072
RightArm  5.18954 -2.89962 34.6227
RightForeArm  0.580364 13.6975 7.9592
RightHand  -0.907136 1.28021 -15.8663
LeftUpLeg  -19.0078 13.3901 -11.3374
LeftLeg  23.2187 6.61651 3.47834
LeftFoot  -6.37273 -0.132141 3.92388
LeftToes  -3.34697e-010 -1.70107e-010 -9.05613e-011
43
root  60.92 38.9462 27.7194 -93.3453 -84.1539 92.3575
RightUpLeg  -7.59433 1.42274 -11.3505
RightLeg  59.8657 -0.519345 -1.46754
RightFoot  11.873 -0.412026 2.41736
RightToes  1.74622e-010 0 -3.6325e-017
Spine  8.24902 2.24651 -0.923706
Spine1  8.19072 3.78195 -6.38796
HEad  -9.62217 1.92592 -4.60701
LeftShoulder1  8.29037 -11.6989 -47.5878
LeftArm  -11.4191 14.3001 -26.0837
LeftForeArm  23.2008 -9.03152 -4.97016
LeftHand  -0.244104 0.0205437 5.32207
RightShoulder  7.16355 10.8157 43.6312
RightArm  4.38862 -5.57594 34.6212
RightForeArm  3.93538 12.1256 8.34619
RightHand  -1.00599 1.64249 -16.6917
LeftUpLeg  -14.78 13.8766 -10.3807
LeftLeg  20.6368 5.87081 2.60922
LeftFoot  -7.49622 -0.0737768 3.54406
LeftToes  -3.34697e-010 -1.70107e-010 -9.05613e-011
44
root  59.65 39.3171 27.9431 -89.1576 -85.0989 87.7454
RightUpLeg  -12.589 0.938282 -10.1543
RightLeg  60.9503 -1.45723 -3.34784
RightFoot  8.46072 -0.532418 3.41102
RightToes  1.74622e-010 0 -3.6325e-017
Spine  8.81055 1.41876 -0.776355
Spine1  7.94438 2.60006 -5.1345
HEad  -9.95761 2.63281 -4.57194
LeftShoulder1  8.39819 -11.8103 -47.8612
LeftArm  -10.3058 10.2314 -26.0753
LeftForeArm  23.8534 -11.2462 -5.25566
LeftHand  -0.244104 0.0205437 5.32207
RightShoulder  7.08631 10.6546 43.6527
RightArm  3.76611 -8.94148 34.5706
RightForeArm  5.5325 11.5651 8.39868
RightHand  -1.07787 2.05897 -16.8993
LeftUpLeg  -10.3463 12.7377 -8.42072
LeftLeg  17.6692 6.8396 1.16574
LeftFoot  -8.4451 -0.0347793 3.39531
LeftToes  -3.34697e-010 -1.70107e-010 -9.05613e-011
